<svg xmlns="http://www.w3.org/2000/svg" width="483.78" height="92.97" viewBox="0 0 483.78 92.97">
  <path id="cclogo-cash" fill="#edac09" d="M27.12 42.41c.33-5.1-3.3-8.13-8.2-8.13-10 0-14.75 9.65-14.75 18.52 0 6.08 3.04 10.58 9.52 10.58 5.5 0 9.46-3.57 11.25-8.53h4.16c-2.5 7.8-7.67 12.04-15.94 12.04C4.7 66.89 0 61.19 0 52.79 0 42.16 6.8 30.78 18.52 30.78c7.4 0 13.03 3.7 12.77 11.64zM58.14 47.64l-.13-.13c-1.32 1.65-5.42 1.78-7.54 1.91-5.1.4-13.5.66-13.5 7.8 0 4.38 3.64 6.16 7.61 6.16 6.68 0 10.92-4.04 12.24-9.99zM37.5 41.95c1.13-7.74 7.08-11.18 14.42-11.18 4.63 0 11.84 1.59 11.84 7.6 0 3.32-1.45 8.47-2.11 11.52-1.52 7.67-2.25 9.45-2.25 11.5 0 1.2 1.19 1.4 2.18 1.4.6 0 1.06-.07 1.66-.14l-.6 3.3c-.93.2-2.32.34-3.44.34-2.32 0-3.57-1.45-3.64-3.7 0-.6.07-1.26.13-1.85l-.13-.14c-2.38 3.97-7.08 6.29-11.84 6.29-6.22 0-10.91-2.78-10.91-9.46 0-7.21 5.75-9.53 11.84-10.59 4.36-.66 8.2-.33 10.85-.99 2.7-.66 4.1-2.18 4.1-6.68 0-4.03-4.04-4.9-7.21-4.9-5.3 0-9.86 2-10.72 7.68zM71.83 54.78c-.06 6.62 4.83 8.6 9.66 8.6 3.7 0 8.6-1.92 8.6-6.28 0-4.43-4.7-5.82-9.2-7.54-4.56-1.79-9.12-3.84-9.12-9.46 0-6.62 7.14-9.33 12.63-9.33 7.15 0 12.3 3.1 12.17 10.98h-4.16c.33-5.22-3.31-7.47-8-7.47-3.65 0-8.48 1.12-8.48 5.82 0 3.17 3.38 4.76 7.22 6.28 4.7 1.85 11.1 3.77 11.1 10.05 0 7.68-7.27 10.46-13.75 10.46-6.55 0-13.23-3.57-12.83-12.1zM109 18.67h4.18L109 37.98h.13c2.38-4.03 6.88-7.21 11.97-7.21 5.96 0 10.32 2.65 10.32 9.2 0 1.05-.2 2.44-.53 4.03l-4.7 21.9h-4.16l4.76-22.03c.27-1.06.47-2.32.47-3.44 0-4.5-3.44-6.15-7.15-6.15-6.02 0-11.51 5.42-13.36 14.09l-3.77 17.53h-4.17z"/>
  <path id="cclogo-swoosh" fill="#edac09" d="M182.83 5.82C168.2 11.85 160 17.19 155.63 20.7l.9-4.04a.74.74 0 0 0-.45-.85.74.74 0 0 0-.91.29l-6.45 10.19a.74.74 0 0 0 .9 1.09l12.47-4.94c.34-.13.53-.5.45-.86a.75.75 0 0 0-.79-.57l-4.98.37c6.28-3.91 17.03-9.98 28.1-13.3 4.72-1.42 40.64-9.05 23.27 20.56a104.41 104.41 0 0 1-3.3 5.25c1.17.9 2.18 2 2.98 3.27a143.1 143.1 0 0 0 7.16-9.67c19-28.1-3.8-33.36-32.15-21.68m2.95 50.4a155.43 155.43 0 0 1-7.76 6.88c-17.75 14.7-37.82 24.75-52.57 26.18-35.68 3.47-12.56-27.1-12.56-27.1.38-.68 2.96-4.82 2.96-4.82-16.35 14.6-27.54 39.75 8.05 35.02 16.37-2.17 37.22-12.72 56.2-27.82a188.94 188.94 0 0 0 18.73-17.13c.02-.42.04-.84.04-1.25 0-1.33-.14-2.54-.46-3.58a141.39 141.39 0 0 1-12.63 13.62"/>
  <path id="cclogo-converters" fill="#960a2c" d="M160.6 44.07a5.06 5.06 0 0 0-1.39-3.9c-.86-.87-2.05-1.26-3.64-1.33-6.61-.26-8.66 6.68-8.66 11.9 0 4.97 1.92 7.88 5.69 7.88 3.57 0 5.69-2.32 6.55-5.82h10.91c-2.05 9.79-8.86 14.09-17.92 14.09-9.53 0-16.48-4.83-16.48-14.95 0-12.17 8-21.37 20.44-21.37 8.67 0 15.35 4.3 15.42 13.5zM218.49 31.56h11.25l-.93 4.17h.13c1.65-2.31 5.82-5.16 11.84-5.16 6.15 0 9.86 3.77 9.86 9.66 0 2.25-.8 5.69-1.2 7.4l-4.1 18.27H234.1l3.9-18.2c.33-1.58.66-3.04.66-4.36 0-2.71-1.71-4.17-4.1-4.17-6.94 0-7.74 6.55-8.92 12.17l-3.05 14.56h-11.24zM254.66 31.56h11.38l1.39 24.21h.13l11.18-24.2h11.77L272 65.9h-13.1zM312.98 45.19c.33-3.84-1.46-7.01-5.23-7.01-4.63 0-7.07 2.71-8.26 7.01zm-14.29 6.28c-.06.67-.13 1.2-.13 2.32.33 3.57 2.38 5.5 6.09 5.5 3.83 0 5.68-1.47 6.55-3.78h10.97c-2.7 8.2-9.65 11.38-17.99 11.38-9.52 0-16.47-4.83-16.47-14.95 0-12.17 8-21.37 20.44-21.37 8.87 0 15.68 5.1 15.68 15.02 0 2.05-.13 3.97-.4 5.88zM332.57 31.56h10.92l-1.26 5.63h.13c2.32-4.04 6.22-6.62 10.78-6.62 1.52 0 2.65.07 3.77.6l-2.18 9.92c-1.52-.4-2.98-.66-5.1-.66-6.14 0-8.53 3.9-9.65 9.72l-3.31 15.75h-11.24zM377.1 31.56h7.07l-1.52 7.28h-7.15l-2.7 12.96c-.34 1.53-.6 2.92-.6 4.1 0 1.66 1.58 1.8 3.5 1.8 1.2 0 2.32-.14 3.5-.2l-1.71 8.4c-2.25.13-4.37.4-6.55.4-5.23 0-10.65-.74-10.65-5.96 0-2.38.46-5.03 1.32-9.06l2.65-12.44h-5.7l1.53-7.28h5.69l2.18-10.32h11.25zM408.26 45.19c.34-3.84-1.45-7.01-5.22-7.01-4.63 0-7.08 2.71-8.27 7.01zm-14.28 6.28c-.07.67-.14 1.2-.14 2.32.34 3.57 2.39 5.5 6.1 5.5 3.83 0 5.68-1.47 6.54-3.78h10.98c-2.71 8.2-9.66 11.38-18 11.38-9.52 0-16.46-4.83-16.46-14.95 0-12.17 8-21.37 20.44-21.37 8.86 0 15.67 5.1 15.67 15.02 0 2.05-.13 3.97-.4 5.88zM427.86 31.56h10.91l-1.26 5.63h.14c2.31-4.04 6.21-6.62 10.78-6.62 1.52 0 2.64.07 3.77.6l-2.18 9.92c-1.53-.4-2.98-.66-5.1-.66-6.15 0-8.53 3.9-9.65 9.72l-3.31 15.75H420.7zM459.94 54.65a4.71 4.71 0 0 0 1.26 3.57c1.06 1 2.65 1.4 4.43 1.4 1.92 0 5.03-.74 5.03-3.51 0-2.98-2.71-3.11-8.2-4.5-5.03-1.13-9.46-2.91-9.46-9.4 0-9.19 9.26-11.64 16.6-11.64 7.15 0 14.62 2.32 14.16 11.12h-10.2c.08-1.2-.19-2.25-.85-2.98-.66-.8-2.12-1.2-3.37-1.2-2.32 0-5.1.8-5.1 3.25s3.64 2.9 7.68 3.9c6.35 1.59 9.98 3.05 9.98 9.79 0 10.52-9.52 12.44-17.59 12.44-8.73 0-14.36-3.31-14.68-12.24zM207.82 37.17a12.83 12.83 0 0 0-2.98-3.27c-2.82-2.19-6.6-3.33-10.93-3.33-12.44 0-20.44 9.2-20.44 21.37 0 4.98 1.7 8.68 4.55 11.16 2.64-2.2 5.24-4.49 7.76-6.88a9.3 9.3 0 0 1-1.06-4.68c0-4.63 2.38-12.7 8.46-12.7 2.92 0 4.52 1.45 5.23 3.76.32 1.04.46 2.25.46 3.58 0 .4-.02.83-.04 1.25-.33 5.1-2.7 11.19-8.62 11.19-.95 0-1.76-.19-2.44-.52a187.9 187.9 0 0 1-7.68 6.46c2.7 1.55 6.07 2.33 9.85 2.33 12.44 0 20.17-8.93 20.17-21.17 0-3.41-.83-6.26-2.29-8.55"/>
</svg>