<svg xmlns="http://www.w3.org/2000/svg" width="1052" height="673" version="1" viewBox="0 0 1052 673">
  <g fill="#555" fill-rule="evenodd" stroke="none" stroke-linejoin="round">
    <path d="M557-30v1l3 1 2 2h-1l-2 2v1l3 2-1 1v2h1c0 2 1 3-1 4v1h-10l-1-1-2-1-2-1v-4l-2-1v-1l1-3-1-3-1-1c-1-2-3-4-1-7 0-2 0-4 2-5l2-1c-1-1 1-3 2-1v-2h2l4 2 1 1 2 2v2l1 2v1l1 3-1 1zM532 74v1l-1-1v-1zm-8 19v-1h1l-1 1h1-1v1h1v-1h1l-2 1zm1 6h1v1h-1zM524 104v-1h1v1zm-1 5h-1l1-1v1l1-1zM609 115c1 2 5 1 5 3-2 1-3 4-3 6-2 1-3 3-3 5 0 3-4 3-5 4 0 2 1 4-1 4-3 0-3 3-5 3-1 1-4 2-3 3 1-1-1 2-2 1 1-1 0-2-1-1h-2c-1-2-4-1-4 1-1 1-3 2-3 0 0-1 2-3 0-3 2-2 4-4 3-6l2-8 5-4c2-2 3-3 3-6l3-5c1-3 4-5 6-6l6-2c2 0 0 3 0 4l-1 7zM685 140l1 1v1h1l-1 1h1l1 1v2l2-1v1h-2l-4-6v-2l-1-2v-2h2l-1 1 1 1zM581 145l-1 1h-1v-1l1-1h1zm-341 5l-1 2h-1v1h-1v-2h2zm1 2v-1l1 3h-2 1l-1-1v-1zM865 186l2 1h-1zM596 235v1h0v1h-1v0h-1v1l-1-1v-2l-1-1 1-1h-2v-1h-1l-1 1h-1v-1h1v-1h-1v-1h-1l2-1v-1l1 1 1-1v1h1v0l1 1h1l1 1v1h-1v2h1v1h1z" clip-rule="evenodd"/>
    <path d="M596 234c-2-1 3-3 0-4v-6c1-1-1-4 1-5l5-2c1 0 2 2 3 0s3 0 5 0c1 1 4-1 5 1 2 1 1 4 1 5l3 1c-1 2 0 3 1 5 0 2 2 3 4 1l4-1c2-1 4 0 2 2 0 2-1 5-4 5-1 2-3 4-5 4-2 1-1 5-3 5-2 1-3 4-6 4-1-1 0 1-2 1-1 0-4-1-3-3 1-1 3-3 1-3s-2 3-4 2l-3-2-1-4-4-6zM582 293h-1v1-2l1-1zM265 415h-2v1-1l2-1 1-1 1-1v1l-1 2-1 1zM588 420h1v1h-2v-1zM590 471c2 9-2-1 0 0zm250 47c-2 3-8-2-5-1 2-2 3-8 4-3-2 0-1 4 0 4 0-2 1 0 1 0zm-69 10c0 4-3-3 0 0zm57 0c8 2-4 4-4 7 2 5-5 8-9 6-4-4-9-9-14-10-8 2-1-2 1-5-2 7 4-5 6-1-1 4 2 0 2 0l2-3c4-4 5 0 4 5 2-5-1-9 5-4 3 0 11 2 7 5zm-348 82c4 1 2 5 0 0zm-4 1c3 2-1 5 0 0zm1 2c0-6 3 3 0 0zm4 2c2 3-5 4-2 1 0-1 2-3 2-1zm-4 4c4 3-3 2 0 0zM757 638c2 1-2 1-2 3-3 1 0-4 1-2l1-1zm-19 28c2 2 0 4 0 0zm-4 0c-2 1 0 4-1 5 0 2 1 3-1 2h-7c1-1-3 1-1-1 2 1 0-6 4-4l2-3c0-2 3 2 3-1-2-2 1 1 1-1v3zm11 4v3c1-1-2 3-1 0-1-1-1-3 1-3zm22 32h-4c-1-1-5-5-6-1 1 3-1-2-3 0-3 0 1-4-1-5 0-2-2-4 0-4 1-1 2 3 4 0h5c1 3 3 2 4 2 2 1 1 3 2 5v3zM986 392h-1v-2zm2 1l-1-1 2 1zm0 2h-1v-1h-1l-1-1-1 1 1-1h1l1-1zm-25 9l2-2 1-1h2v1h2v1l-1 1v-1l-4 2h-2zm-8 6v1h-1l-1-1h1zm-4 0v1h1-2 1zm-7 22h2zm-5 2l-1-1h1l1-1-1-1h1l3 1 1 1 2 1h-1l-2 1h-3zm7 12h-1v-1h1zm1-1h2v1h-1zm-6 2h1zm7 0l1-1v2h-1v-1h-1zm-4 1h-1zm9-6l3 1 2 2h3l2 1c0 1 3 3 3 5h-1v1l-3 1-1-1h-1v-1 1h-1l-2-1h-3v-2l-2-2-1-1h1v-1l1-2h-1zM1063 715c1-1-265 2-262 3 5 0-6-1-4 3-2-5 0-8-2-10 1-6 3-3 1-8-2-4 1-8 2-7-4-5-4 5-6-4l-4-8c4 0 0-4 0 0-5-4-2-7-5-5-2 0-1-7-3-10 1-4-5-8-2-12 6-6-4-12-5-14-2-5 2-5 5-3 1 0 5 4 9 4s6 4 8 3c4-1 10 0 9-6 4 0 8-1 13 1 2-2 0 2 2 5 3 6 0 5-3 9-1 7 6 12 8 18v7c2-2 5 3 3 4 4-1-2-8 4-8 4-1 8-1 11 1 6 3 13 5 19 4 6 1 12 0 18 2 1 4 11 5 8 7 0 0 6-3 10-3 4-2 7-3 10-6 3-4 6-8 11-8 4-1 8-1 11-3l2-1c-5 2-8 0-12 0-3-1-9 0-9-3 3 3 12-1 5 1-7-1-8-8-4-13 4-4 1-12 7-14 4-3 9-4 11-8 6-1 9-6 13-9l13-2c4-2 10-2 12-6 5 2 8 1 11-2 5-3 11-5 13-10 3-4 8-6 11-9 0-5 6-16 7-11 2 3 9 3 5 1 0-1 0-2-2-3-4-4 1-4-5-5-1-3 1-7 1-11 4-1 3-1 0-4l2-16c4 2-2-5-1-8 1-4-2-8 0-12 0-1 3-7 2-10-2-4-3-9 2-9 5-4 8-9 14-10 3-2 8-3 12-3 5 0 24-7 29-8" clip-rule="evenodd"/>
    <path d="M724 423c-4 5-13 11-21 8l-11 8c0 5-3 12-10 9-2 3-17 2-19-4-5-6-11-4-14-14 0-4-1-10-9-7-5 1-3 7-10 7-6-5-12 8-15-3 3-13 3-1 10-7 8-2-3-4-7-4-10 0-5-6-8-10 5-6-8 3-6-2 7 9-14 0-16 9 1 6-3 7-9 7-5-3-3 9-10 4-6 0-12-15-6-8 3-5 14 4 7-3l-12-2c-2 4-2 2-8-2 8 0 16-10 6-15-8 1-10 2-10-4l15-8c1 0 3-10 8-4 6-1 8-1 12-5 3-10 9-1 7-9 7-1 12 2 16-4 6-6 10-5 17-11 3-7 8-13 9-21 1-12 1-5 8-13-10 5-12-4-10-9 4-10 4-6 10-12 0 1-12 4-14-8 3 0 1-12 6-12-5 2-9 0-17 2-7 2-8 3-12 8 2 7-1 6-8 1-2 5-14 6-7-1 2-6 8-9 10-13 6 2 11-7 15-11 2-13 0-3 7-13 4-8 9-8 14-10 5 0 17-11 14 0 6 4-5-12-1-10 8 1 8 7 18 4 7-1 16-11 21-3 4 3 17 16 12 9 3 2 0-4-1-3 5-1-7-9-6-14 8-4 13-6 13 4 5 10 13 9 15 4 6-6-7 5-13-5-6-8-2-9-7-18-6-5 6-19 8-20 4-4 14-4 0-4-10 2-7-15-5-21 0 2 11 12 3 6-5-9 9-8 7-10 1-4 6-14 0-4-8-4 4-9 4-14 4-2-3-4-3-9 10-9 0-2-4 4-5 5-8-6-7-9-2 2-1 8-5 14-6 4-1 8-8 1-1 1-3-7 0-11 3-7 0-8-3-1 1 8-13-7-10-13 4-1-2-5-1-3-3-1-9-13-14-18 6-6 3-12 6-19 6-4 8-13 10-19 3-10 8-1 11-7-11 0 2-8 8-3 6 0 4-7 1-5-7 1-19 1-24-1 1 8-15-7-8-2-2 6 5 17-7 14-3 4-11-1-10 2-3 1 3 3-6 8-7 7-11-2-10-5 6-8-5 8-2 8-3-2-6-2-9-9 5-7-4 7-9-3-1-6-10-10-2-5-5 4-1 9 3 14-4 1 5 14-4 12-8-1-10-9-15-11-6-3-11-13-17-7-9 3 0 12 0 18 7 6-5 8-4-1 0-5-3-6-6-12-6-4-9-9-10-17 0-11 13-6 9 3 11 6-4-11 1-15 4-8 6-14 12-20 0-9 5-15 8-22 11-1 7-13 4-14 0-12 0-7-5-10-4 3-10-9-9-12 3-8-2-20 7-31 5-29-8 32-24 13-8 5-2 9-12 4 4-7 23-59 3-29-12 15-8 27-3 39-8 1-10 13-11 17 4 7-1 6-2 15-2 9-8 6-1 11 4 10-11 12-18 11-4-10 8-15 6-27-1-6 5-11 2-17 5-7 11-10 15-17 3-7-6 10-11 8 1-1-9-13 4-12l232-1c2 3 6 12 11 18 5 10 9 7 12 11-5 2 14 2 8 10 2 3 8 14 1 17 4 6 4 10 7 21-2 8-1 4 2 10 1 5 9 12 1 15 5-7 11 5 8 12 1 8 8 19 11 21 1 5 2 7 1 10-10 7 6-1 2-3 1-2 12 6 16 6 8 3 12 4 15 8 6 0 11 8 13 12 6 8 5 13 8 18 7 2 11 11 19 15-11 1-9 12-5 20 3 15 18 24 21 39 0 7-3-12-14-4-9 0-12-19-23-10-5 2-23-2-18 2 8 3 18 0 27 0 3 10 15 14 20 21l9 4c-1 3 5 9 6 15 6 9 8 19 6 29-6 1-10 9-15 13-3 7-12 9-2 11 8 0 7 12 17 9 7 3 8-12 12-19 9 0 15 1 9-1 7 1 8 3 13 1 15 3 5-2 25 4 13 2 21 14 30 23 8 9 3 21 6 31 0 11-10 19-10 30 0 8-2 16-10 18-2 7-10 16-11 9 1-3-15-11-8-5 11 5 4 8-5 6-6 2 12 2 12 2-3 7-8 6-3 10 10-8-9 17-14 7-7-10 0-2-8-1-5 4 1 3-5 7-8 0-11 1-6 4-2 4 9-6 13-4 7 12-17 16 0 13-1 5-8 13-15 11-9-3-14-1-14 2-4 6-16 10-3 6-3-4 17-4 17 2-7-2-2 2-11 3 3 4 8 5 9 4 2-9 2-1 8 3 10 3 16-2 25-3 7 1 20-6 17 5-9 2 1 11-2 19-4 8-11 8-19 12-14-1-5 19-15 17-12-7-8 1-18 5-6 5-17 3-21 11-6 10-16-3-24-3-10-3-14-4-19-2-9 5-22 0-29 7-1-3-1 9-11-3 3-2 11-4 4-5-1-4-4 5-7-2-9-1 0 7-9 7 3-6-5-9-4-5 6 6 0 7-7 0-9-5-5-11-12-9-7-6 9 10 9 10-4 10-12-5-7 3-4 2-9 10-13 8-13-3-6 2-19 1-4 7-7-5-7-1-3-5-7 7-3 1 0 5 2 2 2 5 4-5 9 9-1 9-4 0-13-4-18-4-11-4-11 3-9 10-1 3-8-13-15-16-6-2-15-10-22-4-5 4-14 1-21 7 1 2-10 8-9 0-7-11 2 5-1 7-8 7 0 16-8 18 4 4 8 7-1 11-6 8-4 18-16 14-4-3-7-10-9-13-1 7-13 3-12-3 3 0-5-1-5-5 2-5-3 7 0 5 3-3 1 10-5 0-9-4-15 5-23 3-7-1-9-2-11 7 2 7-6 2-9 7-3 0-7 12-6 4-1 0-2-6-5-1 3 3 2 2-1 9-2-2 7 11-3 11 0 2-8 8-8-2 1-4-14-14-12-10-9-8-6 11-14 7-6 2-3-9-2-14 5 1 13-10 14-3 6-1 7-7 14-9 2-5 9-7 8-14 3-1 7-3 7-12 0-7 2-2 5-8 5 11 1-3 4-2 5 1 11-4 10-10 8 0 5-8 11-10 5-5 1-11 2-17 4-7-2-15 9-11 8 8 13-11 16-4 6-6 7-7-1-2-4-7-3-13 1-15 6-4 16-2 21-4 6-4 14 3 21 0 8 2 14 8 21 5 6-5 20 2 16-10-1-9 3-5 3-13 4-1 14-15 17-13 3-9 10-16 15-24 13-3-2-15 8-9 7-5-10-1-3 1-3 8-15 10-16 19v1z" clip-rule="evenodd"/>
    <path d="M416 30c0 4-5 9-8 13-1 1 7-7 8-11 4-4 8 1 14 0 4-5 5-7 6-14-2-5 22 4 14 0 3-2 7-5 11-5 5-3 8-5 13-3 4-3 10 6 14 3 6-3 11 3 10 8 0 3-4 13 3 10 5 4-3 10 5 11 2 6 10 9 7 14 5 1 8 11 5 2-6-3 0-8 3-1 3 8-2 11-9 14-5-1-8 15-5 10 4-3 10-8 16-6 4-2 10-1 9 6 4 5 4 12 6 16-3 4 0 10-3 11 0 4-2 7-4-1-5-5 4-4 0-8 1 2 1-4-1-6 0-3-3-5-9-8-1 6 0 5 3 8-3 0 0 3 1 6l-1 8c-3 2-4 5-1 2 5-2 7-1 8 0 0 5 3 7-3 11-3 2-2 5-7 3-1-2-11 3-9-3 1 0-3 5-3 9 2 8-4 13-8 16-6 8-6 0-8-1-3-1-9-3-13-8-6-8 2 4 4 7 5 3 13 5 6 11-5 1-10-5-16-5 5 1 1 7 3 12 1 7 10 4 6 12 5 2 0 11-5 10 9-4 5 8 10 11 3 5 8 5 7 12-9 4-1-1-2 5 1 5-10-2-2 3-1 7 7 5 5 10-5-7-12 3-9 2-2 2 8 5 6 10 1 8 5 14 5 22-4 7 4 10 1 14 0 8-8 13-9 20 4 5-8 12-4 18 4 7-3 14-7 20-5 5 0 12-9 10-3-6-3 0 0 4 2 7 5-3 4 3 7 4 5 17-4 11-4 2 5-2-3-2-1 5-9 3-14-1 10 2 1-2-3 0-8 3 3-4-1-5-4 4-4 7-4 8-2 3-9 11-5 3 2-4-4-9-5-11-1-7-1 10 2 9-1 4-9 9-10 4 4-6-2 1-3-2-3 6-11 3-15 2-5 4-8 3-12 6-3 2-3-3-6-1 1-1-1 8 2 3 6 3 3 8-3 11-6 2-8 6-13 3 1-5-6-6-1-3 2 8-8 8-3 9 7 4-14 3-7 8-5 1-13 8-17 2-2-2 7-4 4-7 5-7-3 0-5-2-1 1-2-2-4-2 3 5-11-3-4 2-7 1 9 0 4 6 4 1 2 6-2 2-3 3 12-1 4 5-1 0 1 6-3 6-3 3-7 4-7 2-5-5 3 8-5 0-1 5-9-7-6-3-2 7 9 2 7 5-1 1-3 6-1 9-1-6-9 1-10-7 1 6-10 0-1 5 3 1-4 9-4 5-2 1-11-6-7-3-3-1 1 5-4 7-2 3-3-2-8-4 2 5-5 4-8 0 7 5-2 9-1 7 0-7 0 1-3 3-2 3-7-4-6 0-4 5-6 3-4-2 6-7 0-1-4 2-2-1 4-6 0-7-4-2 1 3-4 3-4 2-4 0-7 3-5 0-5-2-8 1l-3 4c-3-1 1-2-5 0-1-4 5-7 8-9 4 1 3-5 8-6 6-5 0-2-2-2-4 4-9 6-12 6-8 5 3-5 6-6l16-8c2-1 1-7 1-5-6 2-6-7-8 2-3 1-7 6-11 2 2 3-9 4-11 4-3 5-2 3-9 6-1 1-5-3-8 2-3-5 5-4 5-6 1-4-4-4 5-5 6-2 0-3 1-6 6-2 6-3 8-2 0-6 6 1 4-3-2 0 6-8 9-8s12-6 5-3c-3 1-11 1-14 6 2-4-5 4-4 1-4-3-1 0-6 2-4 1-12 8-11 4-3-2-8 0-4-7-4-7-6 3-8 3-6 2 2-6-4-6-6-1 0-6 4-7 4 0 4-5 7-7-5 5-11 2-4-2 5-2 9-6 16-6 6-8 2-1 5-5 1 7 3-13 3-3 4-4 12 0 7-2 0-6 7-1 0-4-2 1-12 0-10 4 1 2-7-3-13 1-4 0-5 0-8-2-5-3 3 7-6 1 0 1-4 6-9 1 3-5 0-6 3-9 2 1 7 5 4-3l13-7c5 1-3 9 6 4 5-6 3-8 5-7-4 6 8 14 12 6 1 3 9 0 7 0-2-3-14-1-7-5v-8c-4-3-12-7 0-7 5-1 7-6 12-6 6 4-4-2-1-5 0-1 3-9 10-5 7 5 1-2 8-1 3 1 9 1 13-1 4-4 13-2 10-1 4-7 4 0 6-6 4-1 13-3 13 0-2-7 12 6 11-5-2 8-7 0-12 2-1-1-5-4-7-2-5 4-1-3-3-6-1-4 3-8-3-2-7 3 0 2-6 9-1 5-6 8-11 8-2 4-9 3-2-3-4 1-9 7-14 2-2 2-6-9-6-3 4 6-10 1-9 8-2-1-7 2-12 3-9 0 5-5 5-7 4-2 8-8 11-8 1-2 0-9 7-6 5-2 2-6 5-10 2 1 2-8 7-10 4-6-13 2-5-5l7-14c3-5 6-11 12-4 8-3-3-4 7-5 3 3 7 2 1 0 3-5 8 7 6-2-3-1 6-6 3-5-9 4-3 0-6-1 4-2-2 0 3-4-1-1-6-1-8 1-5 2-12 0-18 2-4 1-15 3-14 0-3 0 2-7-2-4 2 6-8 5-2-1-4-4 3-5 3-8-5-1 3-5-3-4 3 5-6 8-2 4 0-2 0-6-3-2-3 1 0 7-7 8-2-3-3 0-5-4-4 5-1-3-1-3 8-3 4-5 5-7-3 0-7 7-5 0l-4 2c-1 6-3 4-5 2-2 0-4-5-9-3-5 0 1-3 0-4 2 0 8 2 5-2-1 1-4-5 3 0-1-3-10-5-7-5-1-2 10 2 0-1-5-3-6-4-1-5 4 1-1-3 8-1 2 6 7-1 0-1-5-5 1-2 7-2 7-1 0-5 7 0 12 0 7 0-1-2-5-2-7-5-6-11-1-7 6-8 9-7 7-1 12 1 12-1 6-1 2-3-1-3 2-1-2-6 3-4-1-2 2-5-1-4 2-1 1-3 0-2-2 0-4 3-5-1 0 3-7-1-8 1-2 3-12 6-11 1 4-5 1-6 2-7 3-3 9 1 8 4 1-11-3 0-4-9 5 1-5-3-3-7 5-3 0 0 4-5 1-1-1-4-3 0 0 2-6 7-7 0 3-3 9-2 3-5 2-3-5-3 1-6-3-4-7-4-6 0-2 1-4 3-4 6-3 1 5 9-4 4 4-5 0-10 5-13-2-3-2-3-1-4 0-3 5-6 6-5 4 7 5 2 6 5-2 9-6-3-6 3 9 2 9 1 7-5 3-4 16 6 5-1 5-1 0 0-3-3-1-4 6-5 7-3 7 4 9 0 12 1 6 1 6 2 10 1 5 4 5-5 12 1-2 6 8 2-1 9 4-2 4-1 3 2 6-1 5 9 5 3 1-1 5-7 5-11 4-3 8-2 10 0 5 6 8-1 12 2 9-2 6 3 8 4 4 4 8 0 5 0-6-2-7-8 0-6 12 2-5-4-1-5 6 1 0-4-5-1-3 2-3-5 4-7 6-6 2-1 1 0 7-4 4-10 10-8 8 0 8-6 14-4-7-1 0-8 2-11 0-6 5 2 3-4 0-1 0-3-5 0-9 8-2-3-8 0-3 2-10 10-9 5 11-6-2-1 2-6-1 1-5 6-4 1-6 4-9 2-9 1-1-6-2 5-5-2-4-1-9-1-6-6-2-2 4-2 5-5 2-5 10-5 13-3 6 2 3 1-3-3 4-1 10 5 8 1 0-2-10-4-6-6 5-2 11 0 13-1 10-5-3 2-4-2 3-5 8 0 3-6-1 4-7 3-7-3-3-1 10 2 3-2-6-6 4-4 0-10 6 2 4-2 6 2 1-1-1-6 1-7-1 1-1-9 3-7 6 2 10-4 6 3 4 1 3-6 9-5-1-4 6-9 6-3-7 3 3 2 3 0 1 5 3 4 0 6 3 5 7-6 2-6 0-5 7-6 5-6-2 8 2 8 3 7 5-2 4 12 4 8 4-5 0-7-1-8 1-3 0-6-1 1-2-2-6-3-3-8 1 1 7-3 9-3 4 6-1 9 5 13 8 6-2 9-5 13 1-1 9 2-1 5 0 5-5 7 1 4 5-6 7-6 12-10-1-5 1-12-6-16l3-11c4 0 6 2 8-2 9-1-1 4 8 3 0-1-8-8-9-11 4 0 11 2 14 4 2 6 4 6 11 8 5 1 10 7 0 10-7 2-13 7-16 14z" clip-rule="evenodd"/>
  </g>
</svg>