<svg xmlns="http://www.w3.org/2000/svg" viewBox="0 0 1881.3 1750">
  <path fill="#41A5EE" d="M1801 0H517.8a80.2 80.2 0 00-80.2 80.2v357.3l743.8 218.8 700-218.8V80.2A80.2 80.2 0 001801 0z"/>
  <path fill="#2B7CD3" d="M1881.3 437.5H437.5V875l743.8 131.3 700-131.3V437.5z"/>
  <path fill="#185ABD" d="M437.5 875v437.5l700 87.5 743.8-87.5V875H437.5z"/>
  <path fill="#103F91" d="M517.7 1750H1801a80.2 80.2 0 0080.2-80.2v-357.3H437.5v357.3a80.2 80.2 0 0080.2 80.2z"/>
  <path opacity=".1" d="M969.8 350H437.5v1093.8h532.3c44.2-.2 80-36 80.2-80.2V430.2c-.1-44.2-36-80-80.2-80.2z"/>
  <path opacity=".2" d="M926 393.8H437.6v1093.7h488.6c44.2-.1 80-36 80.2-80.2V474c-.2-44.2-36-80-80.2-80.1z"/>
  <path opacity=".2" d="M926 393.8H437.6V1400h488.6c44.2-.1 80-36 80.2-80.2V474c-.2-44.2-36-80-80.2-80.1z"/>
  <path opacity=".2" d="M882.3 393.8H437.5V1400h444.8c44.2-.1 80-36 80.2-80.2V474c-.1-44.2-36-80-80.2-80.1z"/>
  <linearGradient id="a" gradientUnits="userSpaceOnUse" x1="167.2" y1="1420.9" x2="795.3" y2="333.1" gradientTransform="matrix(1 0 0 -1 0 1752)">
    <stop offset="0" stop-color="#2368c4"/>
    <stop offset=".5" stop-color="#1a5dbe"/>
    <stop offset="1" stop-color="#1146ac"/>
  </linearGradient>
  <path fill="url(#a)" d="M80.2 393.8h802.1a80.2 80.2 0 0180.2 80.1v802.2a80.2 80.2 0 01-80.2 80.2H80.2A80.2 80.2 0 010 1276V473.9a80.2 80.2 0 0180.2-80.1z"/>
  <path fill="#FFF" d="M329 1008.8a445 445 0 013.2 32.4h1.8c.7-8.8 2.2-19.3 4.4-31.7 2.2-12.3 4.2-22.7 6-31.2l84.3-364h109.1l87.5 358.5c5.1 22.3 8.7 44.9 11 67.6h1.4c1.6-22 4.6-44 9-65.6l69.8-360.6h99.3l-122.6 521.5h-116l-83-345.4a808.4 808.4 0 01-14-73.9h-1.4a992.6 992.6 0 01-12.4 74.9l-78 344.3h-118L147 614.3h101l76 364.7c1.8 7.5 3.4 17.5 5 29.8z"/>
</svg>