<?xml version="1.0" standalone="no"?>
<!DOCTYPE svg PUBLIC "-//W3C//DTD SVG 20010904//EN"
 "http://www.w3.org/TR/2001/REC-SVG-20010904/DTD/svg10.dtd">
<svg version="1.0" xmlns="http://www.w3.org/2000/svg"
 width="700.000000pt" height="700.000000pt" viewBox="0 0 700.000000 700.000000"
 preserveAspectRatio="xMidYMid meet">
<metadata>
Created by potrace 1.11, written by Peter Selinger 2001-2013
</metadata>
<g transform="translate(0.000000,700.000000) scale(0.100000,-0.100000)"
fill="#000000" stroke="none">
<path d="M180 6983 c-61 -22 -140 -103 -163 -168 -16 -47 -17 -221 -15 -3330
l3 -3280 30 -53 c32 -59 66 -91 129 -125 l41 -22 3280 -3 c3661 -2 3330 -9
3419 70 26 22 56 61 69 87 l22 46 0 3295 0 3295 -26 50 c-31 57 -68 94 -131
127 l-43 23 -3285 2 c-2974 1 -3289 0 -3330 -14z"/>
</g>
</svg>
